<svg width="512" height="512" viewBox="0 0 512 512" fill="none" xmlns="http://www.w3.org/2000/svg">
  <rect width="512" height="512" rx="100" fill="#0EA5E9"/>
  <path d="M256 128C176.5 128 112 192.5 112 272C112 351.5 176.5 416 256 416C335.5 416 400 351.5 400 272C400 192.5 335.5 128 256 128ZM256 384C194.1 384 144 333.9 144 272C144 210.1 194.1 160 256 160C317.9 160 368 210.1 368 272C368 333.9 317.9 384 256 384Z" fill="white"/>
  <circle cx="256" cy="272" r="64" fill="white"/>
  <path d="M256 224C229.5 224 208 245.5 208 272C208 298.5 229.5 320 256 320C282.5 320 304 298.5 304 272C304 245.5 282.5 224 256 224ZM256 304C238.3 304 224 289.7 224 272C224 254.3 238.3 240 256 240C273.7 240 288 254.3 288 272C288 289.7 273.7 304 256 304Z" fill="#0EA5E9"/>
</svg> 